<?xml version="1.0" encoding="UTF-8" standalone="no"?>
<!-- Created with Inkscape (http://www.inkscape.org/) -->

<svg
   xmlns:dc="http://purl.org/dc/elements/1.1/"
   xmlns:cc="http://creativecommons.org/ns#"
   xmlns:rdf="http://www.w3.org/1999/02/22-rdf-syntax-ns#"
   xmlns:svg="http://www.w3.org/2000/svg"
   xmlns="http://www.w3.org/2000/svg"
   xmlns:sodipodi="http://sodipodi.sourceforge.net/DTD/sodipodi-0.dtd"
   xmlns:inkscape="http://www.inkscape.org/namespaces/inkscape"
   width="210mm"
   height="297mm"
   viewBox="0 0 210 297"
   version="1.1"
   id="svg8"
   inkscape:version="0.92.3 (2405546, 2018-03-11)"
   sodipodi:docname="gg_software_architecture.svg"
   inkscape:export-filename="/home/torben/Documents/Masterarbeit/Architektur/gg_software_architecture.png"
   inkscape:export-xdpi="216"
   inkscape:export-ydpi="216">
  <defs
     id="defs2">
    <marker
       inkscape:stockid="Arrow1Lend"
       orient="auto"
       refY="0.0"
       refX="0.0"
       id="Arrow1Lend"
       style="overflow:visible;"
       inkscape:isstock="true">
      <path
         id="path995"
         d="M 0.0,0.0 L 5.0,-5.0 L -12.5,0.0 L 5.0,5.0 L 0.0,0.0 z "
         style="fill-rule:evenodd;stroke:#000000;stroke-width:1pt;stroke-opacity:1;fill:#000000;fill-opacity:1"
         transform="scale(0.8) rotate(180) translate(12.5,0)" />
    </marker>
    <marker
       inkscape:stockid="Arrow1Lend"
       orient="auto"
       refY="0"
       refX="0"
       id="Arrow1Lend-0"
       style="overflow:visible"
       inkscape:isstock="true">
      <path
         inkscape:connector-curvature="0"
         id="path995-9"
         d="M 0,0 5,-5 -12.5,0 5,5 Z"
         style="fill:#000000;fill-opacity:1;fill-rule:evenodd;stroke:#000000;stroke-width:1.00000003pt;stroke-opacity:1"
         transform="matrix(-0.8,0,0,-0.8,-10,0)" />
    </marker>
    <marker
       inkscape:stockid="Arrow1Lend"
       orient="auto"
       refY="0"
       refX="0"
       id="Arrow1Lend-6"
       style="overflow:visible"
       inkscape:isstock="true">
      <path
         inkscape:connector-curvature="0"
         id="path995-0"
         d="M 0,0 5,-5 -12.5,0 5,5 Z"
         style="fill:#000000;fill-opacity:1;fill-rule:evenodd;stroke:#000000;stroke-width:1.00000003pt;stroke-opacity:1"
         transform="matrix(-0.8,0,0,-0.8,-10,0)" />
    </marker>
    <marker
       inkscape:stockid="Arrow1Lend"
       orient="auto"
       refY="0"
       refX="0"
       id="Arrow1Lend-2"
       style="overflow:visible"
       inkscape:isstock="true">
      <path
         inkscape:connector-curvature="0"
         id="path995-6"
         d="M 0,0 5,-5 -12.5,0 5,5 Z"
         style="fill:#000000;fill-opacity:1;fill-rule:evenodd;stroke:#000000;stroke-width:1.00000003pt;stroke-opacity:1"
         transform="matrix(-0.8,0,0,-0.8,-10,0)" />
    </marker>
    <marker
       inkscape:stockid="Arrow1Lend"
       orient="auto"
       refY="0"
       refX="0"
       id="Arrow1Lend-8"
       style="overflow:visible"
       inkscape:isstock="true">
      <path
         inkscape:connector-curvature="0"
         id="path995-7"
         d="M 0,0 5,-5 -12.5,0 5,5 Z"
         style="fill:#000000;fill-opacity:1;fill-rule:evenodd;stroke:#000000;stroke-width:1.00000003pt;stroke-opacity:1"
         transform="matrix(-0.8,0,0,-0.8,-10,0)" />
    </marker>
    <clipPath
       id="clipPath3307"
       clipPathUnits="userSpaceOnUse">
      <path
         style="clip-rule:evenodd"
         inkscape:connector-curvature="0"
         id="path3305"
         d="M 0,0 H 2880 V 2880 H 0 Z" />
    </clipPath>
    <clipPath
       id="clipPath3227"
       clipPathUnits="userSpaceOnUse">
      <path
         inkscape:connector-curvature="0"
         id="path3225"
         d="M 0,0 H 128 V 64 H 0 Z" />
    </clipPath>
    <clipPath
       id="clipPath3235"
       clipPathUnits="userSpaceOnUse">
      <path
         inkscape:connector-curvature="0"
         id="path3233"
         d="M 0,64 H 128 V 0 H 0 Z" />
    </clipPath>
  </defs>
  <sodipodi:namedview
     id="base"
     pagecolor="#ffffff"
     bordercolor="#666666"
     borderopacity="1.0"
     inkscape:pageopacity="0.0"
     inkscape:pageshadow="2"
     inkscape:zoom="0.98994949"
     inkscape:cx="76.347629"
     inkscape:cy="1034.9592"
     inkscape:document-units="mm"
     inkscape:current-layer="layer1"
     showgrid="false"
     inkscape:snap-bbox="true"
     inkscape:bbox-nodes="false"
     inkscape:snap-bbox-midpoints="true"
     inkscape:snap-text-baseline="false"
     inkscape:window-width="1299"
     inkscape:window-height="714"
     inkscape:window-x="67"
     inkscape:window-y="26"
     inkscape:window-maximized="1">
    <inkscape:grid
       type="xygrid"
       id="grid815" />
  </sodipodi:namedview>
  <metadata
     id="metadata5">
    <rdf:RDF>
      <cc:Work
         rdf:about="">
        <dc:format>image/svg+xml</dc:format>
        <dc:type
           rdf:resource="http://purl.org/dc/dcmitype/StillImage" />
        <dc:title></dc:title>
      </cc:Work>
    </rdf:RDF>
  </metadata>
  <g
     inkscape:label="Layer 1"
     inkscape:groupmode="layer"
     id="layer1">
    <rect
       style="fill:none;fill-opacity:0;stroke:#000000;stroke-width:0.5291667;stroke-linecap:round;stroke-linejoin:round;stroke-miterlimit:4;stroke-dasharray:1.05833332, 2.11666662;stroke-dashoffset:0;stroke-opacity:1"
       id="rect819"
       width="216.95833"
       height="100.0125"
       x="5.2916665"
       y="6.2229166" />
    <text
       xml:space="preserve"
       style="font-style:normal;font-weight:normal;font-size:4.23333311px;line-height:1.25;font-family:sans-serif;text-align:start;letter-spacing:0px;word-spacing:0px;text-anchor:start;fill:#000000;fill-opacity:1;stroke:none;stroke-width:0.26458332"
       x="15.970086"
       y="15.063721"
       id="text823"><tspan
         sodipodi:role="line"
         id="tspan821"
         x="15.970086"
         y="15.063721"
         style="stroke-width:0.26458332">Interrupt Tasks</tspan></text>
    <text
       xml:space="preserve"
       style="font-style:normal;font-weight:normal;font-size:4.23333311px;line-height:1.25;font-family:sans-serif;text-align:start;letter-spacing:0px;word-spacing:0px;text-anchor:start;fill:#000000;fill-opacity:1;stroke:none;stroke-width:0.26458332"
       x="113.68298"
       y="12.828198"
       id="text827"><tspan
         sodipodi:role="line"
         id="tspan825"
         x="113.68298"
         y="12.828198"
         style="text-align:center;text-anchor:middle;stroke-width:0.26458332">Sensor Readout</tspan><tspan
         sodipodi:role="line"
         x="113.68298"
         y="18.119864"
         style="text-align:center;text-anchor:middle;stroke-width:0.26458332"
         id="tspan829">Tasks</tspan></text>
    <text
       xml:space="preserve"
       style="font-style:normal;font-weight:normal;font-size:4.23333311px;line-height:1.25;font-family:sans-serif;text-align:start;letter-spacing:0px;word-spacing:0px;text-anchor:start;fill:#000000;fill-opacity:1;stroke:none;stroke-width:0.26458332"
       x="181.96408"
       y="15.474031"
       id="text833"><tspan
         sodipodi:role="line"
         id="tspan831"
         x="181.96408"
         y="15.474031"
         style="stroke-width:0.26458332">Andere Tasks</tspan></text>
    <rect
       style="fill:#ff9955;fill-opacity:0;stroke:none;stroke-width:0.52916664;stroke-linecap:round;stroke-linejoin:round;stroke-miterlimit:4;stroke-dasharray:1.05833332, 2.11666664000000004;stroke-dashoffset:0;stroke-opacity:1"
       id="rect835"
       width="47.625"
       height="10.583333"
       x="7.9375"
       y="21.833332" />
    <rect
       style="fill:#ff7f2a;fill-opacity:1;stroke:none;stroke-width:0.52916664;stroke-linecap:round;stroke-linejoin:round;stroke-miterlimit:4;stroke-dasharray:1.05833332, 2.11666664000000004;stroke-dashoffset:0;stroke-opacity:1"
       id="rect837"
       width="42.333332"
       height="10.583333"
       x="10.583333"
       y="24.479166" />
    <rect
       style="fill:#ff7f2a;fill-opacity:1;stroke:none;stroke-width:0.52916664;stroke-linecap:round;stroke-linejoin:round;stroke-miterlimit:4;stroke-dasharray:1.05833333, 2.11666666;stroke-dashoffset:0;stroke-opacity:1"
       id="rect837-3"
       width="42.333332"
       height="10.583333"
       x="10.583333"
       y="37.708332" />
    <rect
       style="fill:#ff7f2a;fill-opacity:1;stroke:none;stroke-width:0.52916664;stroke-linecap:round;stroke-linejoin:round;stroke-miterlimit:4;stroke-dasharray:1.05833333, 2.11666666;stroke-dashoffset:0;stroke-opacity:1"
       id="rect837-6"
       width="42.333332"
       height="10.583333"
       x="10.583333"
       y="50.9375" />
    <rect
       style="fill:#ff7f2a;fill-opacity:1;stroke:none;stroke-width:0.52916664;stroke-linecap:round;stroke-linejoin:round;stroke-miterlimit:4;stroke-dasharray:1.05833333, 2.11666666;stroke-dashoffset:0;stroke-opacity:1"
       id="rect837-7"
       width="42.333332"
       height="10.583333"
       x="10.583333"
       y="64.166664" />
    <rect
       style="fill:#ff7f2a;fill-opacity:1;stroke:none;stroke-width:0.52916664;stroke-linecap:round;stroke-linejoin:round;stroke-miterlimit:4;stroke-dasharray:1.05833333, 2.11666666;stroke-dashoffset:0;stroke-opacity:1"
       id="rect837-5"
       width="42.333332"
       height="10.583333"
       x="10.583333"
       y="77.395836" />
    <text
       xml:space="preserve"
       style="font-style:normal;font-weight:normal;font-size:4.23333311px;line-height:1.25;font-family:sans-serif;text-align:start;letter-spacing:0px;word-spacing:0px;text-anchor:start;fill:#000000;fill-opacity:1;stroke:none;stroke-width:0.26458332"
       x="17.420124"
       y="30.901512"
       id="text874"><tspan
         sodipodi:role="line"
         id="tspan872"
         x="17.420124"
         y="30.901512"
         style="stroke-width:0.26458332">GPS Interrupt</tspan></text>
    <text
       xml:space="preserve"
       style="font-style:normal;font-weight:normal;font-size:4.23333311px;line-height:1.25;font-family:sans-serif;text-align:start;letter-spacing:0px;word-spacing:0px;text-anchor:start;fill:#000000;fill-opacity:1;stroke:none;stroke-width:0.26458332"
       x="17.59169"
       y="44.102772"
       id="text878"><tspan
         sodipodi:role="line"
         id="tspan876"
         x="17.59169"
         y="44.102772"
         style="stroke-width:0.26458332">IMU Interrupt</tspan></text>
    <rect
       style="fill:#2a7fff;fill-opacity:1;stroke:none;stroke-width:0.52916664;stroke-linecap:round;stroke-linejoin:round;stroke-miterlimit:4;stroke-dasharray:1.05833333, 2.11666665999999992;stroke-dashoffset:0;stroke-opacity:1"
       id="rect837-35"
       width="42.333332"
       height="10.583333"
       x="92.604164"
       y="24.479166" />
    <rect
       style="fill:#2a7fff;fill-opacity:1;stroke:none;stroke-width:0.52916664;stroke-linecap:round;stroke-linejoin:round;stroke-miterlimit:4;stroke-dasharray:1.05833334, 2.11666668;stroke-dashoffset:0;stroke-opacity:1"
       id="rect837-35-6"
       width="42.333332"
       height="10.583333"
       x="92.604164"
       y="37.708332" />
    <rect
       style="fill:#2a7fff;fill-opacity:1;stroke:none;stroke-width:0.52916664;stroke-linecap:round;stroke-linejoin:round;stroke-miterlimit:4;stroke-dasharray:1.05833334, 2.11666668;stroke-dashoffset:0;stroke-opacity:1"
       id="rect837-35-2"
       width="42.333332"
       height="10.583333"
       x="92.604164"
       y="50.9375" />
    <rect
       style="fill:#2a7fff;fill-opacity:1;stroke:none;stroke-width:0.52916664;stroke-linecap:round;stroke-linejoin:round;stroke-miterlimit:4;stroke-dasharray:1.05833334, 2.11666668;stroke-dashoffset:0;stroke-opacity:1"
       id="rect837-35-9"
       width="42.333332"
       height="10.583333"
       x="92.604164"
       y="64.166664" />
    <text
       xml:space="preserve"
       style="font-style:normal;font-weight:normal;font-size:4.23333311px;line-height:1.25;font-family:sans-serif;text-align:start;letter-spacing:0px;word-spacing:0px;text-anchor:start;fill:#ffffff;fill-opacity:1;stroke:none;stroke-width:0.26458332"
       x="96.790993"
       y="31.311823"
       id="text924"><tspan
         sodipodi:role="line"
         id="tspan922"
         x="96.790993"
         y="31.311823"
         style="fill:#ffffff;stroke-width:0.26458332">Lese GPS-Daten</tspan></text>
    <text
       xml:space="preserve"
       style="font-style:normal;font-weight:normal;font-size:4.23333311px;line-height:1.25;font-family:sans-serif;text-align:start;letter-spacing:0px;word-spacing:0px;text-anchor:start;fill:#ffffff;fill-opacity:1;stroke:none;stroke-width:0.26458332"
       x="97.051437"
       y="44.513084"
       id="text928"><tspan
         sodipodi:role="line"
         id="tspan926"
         x="97.051437"
         y="44.513084"
         style="fill:#ffffff;stroke-width:0.26458332">Lese IMU-Daten</tspan></text>
    <text
       xml:space="preserve"
       style="font-style:normal;font-weight:normal;font-size:4.23333311px;line-height:1.25;font-family:sans-serif;text-align:start;letter-spacing:0px;word-spacing:0px;text-anchor:start;fill:#000000;fill-opacity:1;stroke:none;stroke-width:0.26458332"
       x="31.654915"
       y="54.714012"
       id="text951"><tspan
         sodipodi:role="line"
         id="tspan949"
         x="31.654915"
         y="54.714012"
         style="text-align:center;text-anchor:middle;stroke-width:0.26458332">PWM Capture</tspan><tspan
         sodipodi:role="line"
         x="31.654915"
         y="60.00568"
         style="text-align:center;text-anchor:middle;stroke-width:0.26458332"
         id="tspan953">Interrupt</tspan></text>
    <text
       xml:space="preserve"
       style="font-style:normal;font-weight:normal;font-size:4.23333311px;line-height:1.25;font-family:sans-serif;text-align:start;letter-spacing:0px;word-spacing:0px;text-anchor:start;fill:#000000;fill-opacity:1;stroke:none;stroke-width:0.26458332"
       x="31.723127"
       y="67.943176"
       id="text951-1"><tspan
         sodipodi:role="line"
         id="tspan949-2"
         x="31.723127"
         y="67.943176"
         style="text-align:center;text-anchor:middle;stroke-width:0.26458332">Sonar Capture</tspan><tspan
         sodipodi:role="line"
         x="31.723127"
         y="73.23484"
         style="text-align:center;text-anchor:middle;stroke-width:0.26458332"
         id="tspan953-7">Interrupt</tspan></text>
    <text
       xml:space="preserve"
       style="font-style:normal;font-weight:normal;font-size:4.23333311px;line-height:1.25;font-family:sans-serif;text-align:start;letter-spacing:0px;word-spacing:0px;text-anchor:start;fill:#000000;fill-opacity:1;stroke:none;stroke-width:0.26458332"
       x="31.571199"
       y="81.209557"
       id="text978"><tspan
         sodipodi:role="line"
         id="tspan976"
         x="31.571199"
         y="81.209557"
         style="text-align:center;text-anchor:middle;stroke-width:0.26458332">SPI Lesezugriff</tspan><tspan
         sodipodi:role="line"
         x="31.571199"
         y="86.501221"
         style="text-align:center;text-anchor:middle;stroke-width:0.26458332"
         id="tspan980">Interrupt</tspan></text>
    <text
       xml:space="preserve"
       style="font-style:normal;font-weight:normal;font-size:4.23333311px;line-height:1.25;font-family:sans-serif;text-align:start;letter-spacing:0px;word-spacing:0px;text-anchor:start;fill:#ffffff;fill-opacity:1;stroke:none;stroke-width:0.26458332"
       x="97.929939"
       y="57.807362"
       id="text984"><tspan
         sodipodi:role="line"
         id="tspan982"
         x="97.929939"
         y="57.807362"
         style="fill:#ffffff;stroke-width:0.26458332">Berechne Wert</tspan></text>
    <text
       xml:space="preserve"
       style="font-style:normal;font-weight:normal;font-size:4.23333311px;line-height:1.25;font-family:sans-serif;text-align:start;letter-spacing:0px;word-spacing:0px;text-anchor:start;fill:#ffffff;fill-opacity:1;stroke:none;stroke-width:0.26458332"
       x="94.33326"
       y="71.03653"
       id="text988"><tspan
         sodipodi:role="line"
         id="tspan986"
         x="94.33326"
         y="71.03653"
         style="fill:#ffffff;stroke-width:0.26458332">Berechne Abstand</tspan></text>
    <path
       style="fill:none;stroke:#000000;stroke-width:0.26458333;stroke-linecap:butt;stroke-linejoin:miter;stroke-opacity:1;stroke-miterlimit:4;stroke-dasharray:none;marker-end:url(#Arrow1Lend)"
       d="M 55.562499,29.770834 H 89.958332"
       id="path990"
       inkscape:connector-curvature="0" />
    <path
       style="fill:none;stroke:#000000;stroke-width:0.26458332;stroke-linecap:butt;stroke-linejoin:miter;stroke-miterlimit:4;stroke-dasharray:none;stroke-opacity:1;marker-end:url(#Arrow1Lend-0)"
       d="M 55.5625,43 H 89.958333"
       id="path990-3"
       inkscape:connector-curvature="0" />
    <path
       style="fill:none;stroke:#000000;stroke-width:0.26458332;stroke-linecap:butt;stroke-linejoin:miter;stroke-miterlimit:4;stroke-dasharray:none;stroke-opacity:1;marker-end:url(#Arrow1Lend-6)"
       d="M 55.5625,56.229167 H 89.958333"
       id="path990-6"
       inkscape:connector-curvature="0" />
    <path
       style="fill:none;stroke:#000000;stroke-width:0.26458332;stroke-linecap:butt;stroke-linejoin:miter;stroke-miterlimit:4;stroke-dasharray:none;stroke-opacity:1;marker-end:url(#Arrow1Lend-2)"
       d="M 55.5625,69.458333 H 89.958333"
       id="path990-1"
       inkscape:connector-curvature="0" />
    <rect
       style="fill:#ffd42a;fill-opacity:1;stroke:none;stroke-width:0.52916664;stroke-linecap:round;stroke-linejoin:round;stroke-miterlimit:4;stroke-dasharray:1.05833334, 2.11666667999999980;stroke-dashoffset:0;stroke-opacity:1"
       id="rect837-35-20"
       width="42.333332"
       height="10.583333"
       x="174.625"
       y="24.479166" />
    <text
       xml:space="preserve"
       style="font-style:normal;font-weight:normal;font-size:4.23333311px;line-height:1.25;font-family:sans-serif;text-align:start;letter-spacing:0px;word-spacing:0px;text-anchor:start;fill:#000000;fill-opacity:1;stroke:none;stroke-width:0.26458332"
       x="176.0771"
       y="31.349031"
       id="text2554"><tspan
         sodipodi:role="line"
         id="tspan2552"
         x="176.0771"
         y="31.349031"
         style="stroke-width:0.26458332">Sensordatenfusion</tspan></text>
    <rect
       style="fill:#ffd42a;fill-opacity:1;stroke:none;stroke-width:0.52916664;stroke-linecap:round;stroke-linejoin:round;stroke-miterlimit:4;stroke-dasharray:1.05833335, 2.1166667;stroke-dashoffset:0;stroke-opacity:1"
       id="rect837-35-20-3"
       width="42.333332"
       height="10.583333"
       x="174.625"
       y="37.708332" />
    <text
       xml:space="preserve"
       style="font-style:normal;font-weight:normal;font-size:4.23333311px;line-height:1.25;font-family:sans-serif;text-align:start;letter-spacing:0px;word-spacing:0px;text-anchor:start;fill:#000000;fill-opacity:1;stroke:none;stroke-width:0.26458332"
       x="195.61079"
       y="41.932365"
       id="text2554-7"><tspan
         sodipodi:role="line"
         id="tspan2552-5"
         x="196.28465"
         y="41.932365"
         style="text-align:center;text-anchor:middle;stroke-width:0.26458332">Schreibe auf </tspan><tspan
         sodipodi:role="line"
         x="195.61079"
         y="47.224033"
         style="text-align:center;text-anchor:middle;stroke-width:0.26458332"
         id="tspan2589">SD-Karte</tspan></text>
    <text
       xml:space="preserve"
       style="font-style:normal;font-weight:normal;font-size:5.64444447px;line-height:1.25;font-family:sans-serif;text-align:start;letter-spacing:0px;word-spacing:0px;text-anchor:start;fill:#000000;fill-opacity:1;stroke:none;stroke-width:0.26458332"
       x="86.063995"
       y="100.66676"
       id="text2593"><tspan
         sodipodi:role="line"
         id="tspan2591"
         x="86.063995"
         y="100.66676"
         style="stroke-width:0.26458332">EFM32 Giant Gecko</tspan></text>
    <g
       id="g3217"
       transform="matrix(0.22672934,0,0,0.22649305,197.91361,93.141488)"
       style="stroke-width:1.55675375">
      <g
         id="g3219"
         transform="matrix(0.75,0,0,-0.75,0,48)"
         style="stroke-width:1.55675375">
        <g
           id="g3221"
           style="stroke-width:1.55675375">
          <g
             id="g3223"
             clip-path="url(#clipPath3227)"
             style="stroke-width:1.55675375">
            <g
               id="g3229"
               style="stroke-width:1.55675375">
              <g
                 id="g3231"
                 clip-path="url(#clipPath3235)"
                 style="stroke-width:1.55675375">
                <g
                   id="g3237"
                   transform="translate(65.777,39.0924)"
                   style="stroke-width:1.55675375">
                  <path
                     d="m 0,0 c 9.969,-0.444 10.511,-0.976 13.126,-2.097 -8.779,-1.73 -24.392,-3.519 -39.853,-1.999 -2.629,0.344 -9.344,1.59 -12.403,3.336 -1.299,0.741 -4.35,2.436 -4.137,5.574 0.21,3.101 4.565,6.363 6.345,7.406 12.14,7.117 25.079,9.508 38.774,11.688 -10.39,-1.251 -17.607,-2.762 -24.165,-4.426 -16.32,-4.142 -33.404,-11.716 -39.522,-19.516 -2.644,-3.313 -3.908,-6.991 -2.083,-10.451 3.204,-6.073 12.574,-9.121 23.04,-10.607 -3.522,1.072 -7.847,2.216 -9.747,4.801 -0.645,0.878 -0.936,2.818 1.233,4.582 5.171,4.205 9.267,5.73 9.267,5.73 l 10.395,-2.42 -1.873,-1.404 c -0.886,-0.581 -1.333,-1.522 -0.864,-2.53 1.09,-1.542 2.456,-2.13 3.663,-2.739 12.322,-4.994 35.304,-0.604 42.841,4.87 2.07,1.452 4.202,2.879 4.373,5.637 0.096,1.549 -1.171,2.747 -1.87,3.274 C 12.217,1.791 4.973,2.137 -0.006,2.232 -9.031,2.402 -11.254,3.4 -13.729,4.909 2.814,7.883 18.054,8.595 32.833,5.641 c 3.548,-0.92 7.859,-2.36 9.422,-5.334 1.142,-2.174 0.103,-4.684 -2.034,-6.751 -4.663,-4.509 -12.797,-7.41 -18.129,-9.311 10.937,3.486 17.583,5.362 27.776,11.529 5.26,3.181 12.614,9.359 11.171,15.783 -1.754,7.806 -15.958,10.837 -15.958,10.837 0,0 3.165,-1.106 4.734,-2.992 1.419,-1.706 1.364,-3.128 1.196,-3.707 -1.348,-4.66 -7.39,-5.261 -11.478,-6.81 l -11.43,1.743 c 0,0 2.02,1.065 2.958,1.743 1.082,0.823 1.772,1.936 1.28,3.244 -0.986,1.887 -2.556,2.849 -4.781,3.507 -12.427,3.676 -28.418,1.58 -39.503,-4.81 -2.661,-1.646 -6.199,-3.859 -6.521,-7.235 -0.142,-1.496 1.066,-3.285 2.884,-4.314 C -9.915,-0.157 -5.324,0.124 0,0"
                     style="fill:#d91e2a;fill-opacity:1;fill-rule:nonzero;stroke:none;stroke-width:1.55675375"
                     id="path3239"
                     inkscape:connector-curvature="0" />
                </g>
                <g
                   id="g3241"
                   transform="translate(127,60.3748)"
                   style="stroke-width:1.55675375">
                  <path
                     d="M 0,0 C 0,-1.38 -1.12,-2.5 -2.5,-2.5 -3.881,-2.5 -5,-1.38 -5,0 -5,1.381 -3.881,2.5 -2.5,2.5 -1.12,2.5 0,1.381 0,0 Z"
                     style="fill:none;stroke:#000000;stroke-width:0.93405229;stroke-linecap:butt;stroke-linejoin:miter;stroke-miterlimit:4;stroke-dasharray:none;stroke-opacity:1"
                     id="path3243"
                     inkscape:connector-curvature="0" />
                </g>
                <g
                   id="g3245"
                   transform="translate(123.7309,60.5444)"
                   style="stroke-width:1.55675375">
                  <path
                     d="M 0,0 H 0.808 C 0.979,0 1.114,0.019 1.21,0.055 1.307,0.091 1.381,0.15 1.431,0.23 1.482,0.311 1.507,0.397 1.507,0.492 1.507,0.629 1.458,0.744 1.361,0.832 1.263,0.921 1.11,0.966 0.899,0.966 H 0 Z m -0.377,-1.628 v 2.917 h 1.26 C 1.136,1.289 1.329,1.263 1.46,1.21 1.592,1.158 1.697,1.065 1.776,0.933 1.855,0.8 1.894,0.653 1.894,0.493 1.894,0.285 1.829,0.111 1.698,-0.031 1.568,-0.173 1.367,-0.264 1.095,-0.302 1.193,-0.351 1.269,-0.4 1.32,-0.447 1.431,-0.551 1.534,-0.68 1.632,-0.835 l 0.491,-0.793 h -0.47 l -0.375,0.606 c -0.11,0.175 -0.2,0.309 -0.271,0.402 -0.07,0.092 -0.135,0.157 -0.191,0.195 -0.055,0.037 -0.114,0.062 -0.172,0.077 -0.042,0.009 -0.111,0.014 -0.208,0.014 H 0 v -1.294 z"
                     style="fill:#000000;fill-opacity:1;fill-rule:nonzero;stroke:none;stroke-width:1.55675375"
                     id="path3247"
                     inkscape:connector-curvature="0" />
                </g>
                <path
                   d="m 14,1 h 2 v 14 h -2 z"
                   style="fill:#000000;fill-opacity:1;fill-rule:nonzero;stroke:none;stroke-width:1.55675375"
                   id="path3249"
                   inkscape:connector-curvature="0" />
                <g
                   id="g3251"
                   transform="translate(28,1)"
                   style="stroke-width:1.55675375">
                  <path
                     d="M 0,0 V 2 H -5 V 14 H -7 V 0 Z"
                     style="fill:#000000;fill-opacity:1;fill-rule:nonzero;stroke:none;stroke-width:1.55675375"
                     id="path3253"
                     inkscape:connector-curvature="0" />
                </g>
                <g
                   id="g3255"
                   transform="translate(31,1)"
                   style="stroke-width:1.55675375">
                  <path
                     d="M 0,0 H 2 V 14 H 0 Z"
                     style="fill:#000000;fill-opacity:1;fill-rule:nonzero;stroke:none;stroke-width:1.55675375"
                     id="path3257"
                     inkscape:connector-curvature="0" />
                </g>
                <g
                   id="g3259"
                   transform="translate(44,5)"
                   style="stroke-width:1.55675375">
                  <path
                     d="M 0,0 V -2 H -4 V 8 H 0 L 0.016,6.375 H 1.984 V 7.984 C 1.984,8.953 1,10 0,10 H -4 C -5,10 -6,9 -6,8.044 V -2.015 C -6,-3 -5,-4 -4,-4 h 4 c 1,0 2,1 2,2 v 2 z"
                     style="fill:#000000;fill-opacity:1;fill-rule:nonzero;stroke:none;stroke-width:1.55675375"
                     id="path3261"
                     inkscape:connector-curvature="0" />
                </g>
                <g
                   id="g3263"
                   transform="translate(64,10)"
                   style="stroke-width:1.55675375">
                  <path
                     d="M 0,0 4,-9 H 6 V 5 H 4 V -4 L 0,5 H -2 V -9 h 2 z"
                     style="fill:#000000;fill-opacity:1;fill-rule:nonzero;stroke:none;stroke-width:1.55675375"
                     id="path3265"
                     inkscape:connector-curvature="0" />
                </g>
                <g
                   id="g3267"
                   transform="translate(92,1)"
                   style="stroke-width:1.55675375">
                  <path
                     d="M 0,0 V 2 H -5 V 14 H -7 V 0 Z"
                     style="fill:#000000;fill-opacity:1;fill-rule:nonzero;stroke:none;stroke-width:1.55675375"
                     id="path3269"
                     inkscape:connector-curvature="0" />
                </g>
                <path
                   d="m 56,3 h -4 v 10 h 4 z m 0,-2 c 1,0 2,1.014 2,2 v 10 c 0,0.956 -1,2 -2,2 h -4 c -1,0 -2,-1 -2,-1.956 V 2.986 C 50,2 51,1 52,1 Z"
                   style="fill:#000000;fill-opacity:1;fill-rule:nonzero;stroke:none;stroke-width:1.55675375"
                   id="path3271"
                   inkscape:connector-curvature="0" />
                <g
                   id="g3273"
                   transform="translate(99.5313,11.7187)"
                   style="stroke-width:1.55675375">
                  <path
                     d="m 0,0 1.509,-5.669 -3.071,0.013 z m -1,3.281 -4.031,-14 h 2.041 l 0.876,3.019 h 4.177 l 0.781,-3.019 H 4.969 L 1,3.281 Z"
                     style="fill:#000000;fill-opacity:1;fill-rule:nonzero;stroke:none;stroke-width:1.55675375"
                     id="path3275"
                     inkscape:connector-curvature="0" />
                </g>
                <g
                   id="g3277"
                   transform="translate(110,7)"
                   style="stroke-width:1.55675375">
                  <path
                     d="M 0,0 H 4 V -4 H 0 Z M 0,6 H 4 V 2 H 0 Z M -2,-6 h 6 c 1,0 2,1 2,2 v 3.5 L 4.5,1 6,2.5 V 6 C 6,7 5,8 4,8 h -6 z"
                     style="fill:#000000;fill-opacity:1;fill-rule:nonzero;stroke:none;stroke-width:1.55675375"
                     id="path3279"
                     inkscape:connector-curvature="0" />
                </g>
                <g
                   id="g3281"
                   transform="translate(3,11.8601)"
                   style="stroke-width:1.55675375">
                  <path
                     d="M 0,0 C 0,-1.11 0.031,-1.185 0.752,-1.556 L 4.639,-3.503 C 5.625,-3.966 5.969,-4.643 6,-5.443 V -8.876 C 6,-9.862 5,-10.86 4,-10.86 H 0 c -1,0 -2,1 -2,1.986 v 2.014 h 2 v -2 h 4 v 1.894 c -0.031,1.312 0,1.343 -0.793,1.805 L 0.062,-3.593 C -1.219,-2.954 -1.969,-2.304 -2,-1.318 V 1.14 c 0,1 1,2 2,2 h 4 c 1.437,0 2,-0.754 2,-2 V -0.485 H 4.042 L 4,1.14 H 0 Z"
                     style="fill:#000000;fill-opacity:1;fill-rule:nonzero;stroke:none;stroke-width:1.55675375"
                     id="path3283"
                     inkscape:connector-curvature="0" />
                </g>
                <g
                   id="g3285"
                   transform="translate(121,11.8601)"
                   style="stroke-width:1.55675375">
                  <path
                     d="M 0,0 C 0,-1.11 0.031,-1.185 0.752,-1.556 L 4.639,-3.503 C 5.625,-3.966 5.969,-4.654 6,-5.454 v -3.42 C 6,-9.86 5,-10.86 4,-10.86 H 0 c -1,0 -2,1 -2,1.986 v 2.014 h 2 v -2 h 4 v 1.894 c -0.031,1.312 0,1.343 -0.794,1.805 L 0.062,-3.593 C -1.219,-2.954 -1.969,-2.304 -2,-1.318 V 1.14 c 0,1 1,2 2,2 h 4 c 1.437,0 2,-0.754 2,-2 V -0.485 H 4 V 1.14 H 0 Z"
                     style="fill:#000000;fill-opacity:1;fill-rule:nonzero;stroke:none;stroke-width:1.55675375"
                     id="path3287"
                     inkscape:connector-curvature="0" />
                </g>
              </g>
            </g>
          </g>
        </g>
      </g>
    </g>
    <g
       id="g3299"
       transform="matrix(0.00371127,0,0,0.00371127,145.4656,93.165746)"
       style="stroke-width:0.95055866">
      <g
         id="g3301"
         style="stroke-width:0.95055866">
        <g
           id="g3303"
           clip-path="url(#clipPath3307)"
           style="stroke-width:0.95055866">
          <g
             id="g3309"
             transform="matrix(0.134831,0,0,0.134831,14.15728,0)"
             style="stroke-width:0.95055866">
            <path
               d="m 21150,10680 c 0,5902.5 -4732.5,10680 -10575,10680 C 4732.5,21360 0,16575 0,10680 0,4784.9995 4732.5,-6.7e-4 10575,-6.7e-4 16417.5,-6.7e-4 21150,4784.9995 21150,10680"
               style="fill:#a2bb3b;fill-opacity:1;fill-rule:nonzero;stroke:none;stroke-width:0.95055866"
               id="path3311"
               inkscape:connector-curvature="0" />
            <path
               d="m 9195,15870 c 1702.5,0 3150,-1350 3682.5,-3225 30,-172.5 -75,-240 -195,-390 -120,-150 -585,-517.501 -667.5,-577.5 -187.5,-135 -390.001,90 -360,209.999 30,120 240,480.001 269.999,742.501 30.001,277.5 -187.5,254.999 -255,172.5 -67.5,-75 -60,-262.5 -22.5,-420 52.5,-247.5 -44.999,-352.5 -105,-375 -67.5,-22.5 -120,7.5 -180,97.5 -105.001,150 -225,480 -570,585 -277.5,82.499 -375,-82.5 -375,-150 7.5,-105.001 90,-195 270,-210 180,-15 397.5,-97.5 502.5,-210 120,-120 165,-195 142.5,-277.5 -22.5,-82.5 -127.5,-120 -337.5,-82.5 -135,22.5 -697.5,60 -667.5,-202.5 30,-240 337.5,-157.5 457.5,-90 127.5,67.5 209.999,112.5 375,112.5 90,0 97.499,-67.501 37.5,-127.5 -52.501,-45 -285,-60 -322.5,-202.501 -37.5,-134.999 37.5,-194.999 142.5,-180 97.5,15 240,127.5 322.5,262.5 75,135 135,225 172.5,187.5 44.999,-37.5 30,-157.5 -7.5,-300 -30,-142.5 -202.5,-465 -45,-795 150,-307.499 825,-15 1140.001,202.501 -67.501,-120 -487.501,-1132.5 -742.501,-1695 -82.5,-187.5 -172.5,-322.5 -195,-360 -59.999,-90 -127.5,-30 -150,-7.5 -525,592.501 -697.499,622.5 -929.999,697.5 -232.5,75 -307.5,15 -420,60 -202.5,75 -232.499,367.5 -300,480 -60,112.5 -247.5,292.501 -360,150 -112.5,-150 142.501,-307.499 202.501,-367.5 59.999,-60 112.5,-142.5 90,-187.5 -37.5,-67.5 -120,-37.5 -210,0 -82.5,30 -300,142.5 -465,210 -157.5,67.5 -262.5,37.5 -300,0 -45,-37.5 -75,-165 90,-240 165,-75 577.5,-52.5 675,-82.5 82.5,-22.5 75,-120 0,-127.5 -45,-7.5 -195,22.5 -307.5,15 -90,-7.5 -330,-75 -285,-232.5 30.001,-105 210,-112.5 330.001,-67.5 112.5,45 209.999,105 277.5,127.5 75,30.001 150,30.001 180,22.5 82.5,-22.5 120,-105 105,-157.5 -67.5,-187.5 -202.5,-194.999 -247.4991,-284.999 -45,-97.5 -15.0009,-202.501 67.5,-232.5 67.5,-22.5 142.5,45 180,105 67.501,112.5 37.5,202.5 180.0011,345 52.5,45 127.5,52.5 150,52.5 412.5,-37.5 615,-352.5 712.5,-487.5 97.499,-135 37.5,-187.5 22.499,-225 -22.499,-37.5 -165,-405.0005 -209.999,-569.9995 -45,-165.0005 -165.001,-442.5 -300,-502.5005 -390.001,-172.4995 -427.501,157.5 -930.0001,180.0005 -495,15 -2220,150 -2715.0005,-390 -262.5,-277.5005 1290.0005,-1222.5 1529.9995,-1395.0005 232.5,-172.4995 690,-464.9995 1027.5,-405 337.501,52.5005 937.5011,240.0005 1792.5001,52.5005 352.5,-75 1770,-90.0005 2655,-1080 90,-97.5 22.501,-172.5 -22.5,-180 -45,-7.5 -345,-45 -345,-232.5 0,-187.5 285.001,-97.5 420,22.4997 60,52.5003 172.5,37.5 97.5,-67.5 -75,-104.9997 -202.499,-472.5 22.501,-547.5 157.5,-52.5 217.5,120 172.501,247.5 -45,127.5003 -105.001,322.5 7.499,352.5003 112.5,30 120,-150 172.501,-232.5 45,-82.5003 180,-382.5003 420,-367.5 172.5,7.5 135,209.9997 22.5,307.5 -105,90.0002 -352.499,172.5 -382.499,345.0002 -15,75 60,104.9998 105,90 52.499,-15 472.501,-67.4997 412.5,172.5 -52.499,202.5002 -337.5,22.4998 -405,0 -67.501,-22.5 -127.5,15 -142.501,59.9998 -472.5,1042.5 -1214.999,1312.5 -1792.5,1567.5 -37.5,15 -60,60 -15,90 840,622.5004 2017.499,1905 2265,3127.4995 202.499,997.5 -135.001,1882.5 -337.5,2167.501 352.499,-225 982.5,-532.5 1139.999,-307.5 172.501,247.5 390,540 247.501,1275 105,30 225,-22.5 300,-120 75,-90 344.999,-450 555.001,-240 89.998,90 -45,225 -202.5,247.5 -150,22.5 -322.501,127.5 -405,270 -52.5,82.5 30,67.5 82.499,60 187.5,-37.5 510.001,-187.5 757.501,-157.5 247.5,37.5 269.998,157.5 247.5,225 -22.5,67.5 -75,165 -367.5,97.5 -292.5,-67.5 -405,-60 -495,30 -90,90 262.5,247.5 457.5,420 164.998,150 442.5,577.499 150,645 -195,44.999 -360.002,-240 -405,-442.501 -45,-217.5 -217.501,-450 -502.5,-532.499 -210.001,-60 -337.5,30 -352.5,119.999 -30,135 15,277.5 105.001,510.001 89.999,232.5 112.5,525 -127.5,525 -180,0 -239.999,-292.5 -217.5,-405 14.999,-112.5 82.5,-330.001 7.5,-652.501 -75,-322.499 60,-487.5 82.499,-532.499 30.001,-45 -112.5,-390 -607.499,44.999 -300,270 -465,472.5 -525,682.5 C 13237.507,15412.5 11985.006,16537.5 9750.0059,16777.502 7192.5063,17055 3532.5059,13822.501 5715.0063,8542.501 4312.5063,13125 7035.0068,15870 9195.0068,15870"
               style="fill:#ffffff;fill-opacity:1;fill-rule:nonzero;stroke:none;stroke-width:0.95055866"
               id="path3313"
               inkscape:connector-curvature="0" />
          </g>
        </g>
      </g>
    </g>
  </g>
</svg>
